<?xml version="1.0" encoding="iso-8859-1"?>
<!-- Uploaded to: SVG Repo, www.svgrepo.com, Generator: SVG Repo Mixer Tools -->
<svg fill="#000000" height="800px" width="800px" version="1.1" id="Layer_1" xmlns="http://www.w3.org/2000/svg" xmlns:xlink="http://www.w3.org/1999/xlink" 
	 viewBox="0 0 512 512" xml:space="preserve">
<g>
	<g>
		<g>
			<polygon points="443.46,375.05 443.46,375.058 443.468,375.144 			"/>
			<path d="M507.105,128.67c6.489-6.489,6.529-17.081,0-23.61l-80.612-80.61C411.009,8.961,389.839,0,367.469,0
				c-9.612,0-214.715,0-222.928,0c-21.096,0-36.401,8.382-35.288,7.826c0,0-0.001,0-0.001,0.001
				c-7.494,3.331-16.409,9.295-23.738,16.624L4.904,105.06c-6.52,6.52-6.52,17.09,0,23.61l77.987,77.987l-14.35,168.487l0.009-0.098
				c-1.554,17.053,5.74,34.041,19.828,44.606l118.655,88.991c2.914,2.185,6.375,3.339,10.017,3.339c8.001,0,61.085,0,72.636,0
				c5.042-0.087,9.831,0.757,15.292-3.339l118.654-88.991c13.818-10.364,21.405-27.2,19.829-44.594l-14.343-168.401L507.105,128.67z
				 M303.197,33.39c-6.96,19.466-25.582,33.386-47.191,33.39c-21.679-0.008-40.266-13.988-47.199-33.39H303.197z M86.785,163.33
				l-46.466-46.465l55.759-55.759L86.785,163.33z M210.402,469.432l-93.115-69.835C163.976,384.567,211.76,420.212,210.402,469.432z
				 M301.608,469.432c-1.361-49.332,46.529-84.831,93.115-69.835L301.608,469.432z M310.059,383.712
				c-29.204,21.898-45.242,57.76-41.268,94.879H243.22c6.592-61.551-41.597-115.816-104.084-115.816
				c-12.386-0.001-24.791,2.212-36.593,6.616c17.525-205.785,10.812-129.523,29.436-334.382c4.07-1.055,8.284-1.618,12.563-1.618
				h29.679c10.491,51.202,65.609,80.858,114.242,60.181c24.925-10.598,43.736-32.935,49.317-60.181h29.69
				c4.277,0,8.492,0.563,12.563,1.618c18.624,204.871,11.911,128.619,29.436,334.382
				C376.12,356.945,338.674,362.249,310.059,383.712z M425.224,163.331l-9.292-102.223l55.758,55.757L425.224,163.331z"/>
		</g>
	</g>
</g>
<g>
	<g>
		<path d="M367.977,175.221c-13.77-33.974-52.687-50.688-87.007-36.768c-12.41,5.03-19.243,11.816-24.966,17.539l-2.868-2.868
			c-12.539-12.547-29.452-19.563-47.216-19.563c-47.417,0.001-79.65,48.106-61.888,91.9c3.262,8.049,8.182,15.612,14.671,22.098
			l85.497,85.497c6.489,6.489,17.081,6.529,23.61,0l85.497-85.497C372.554,228.32,377.922,199.741,367.977,175.221z
			 M329.698,223.948l-73.692,73.692l-73.692-73.692c-6.395-6.402-9.784-14.845-9.783-23.607
			c-0.002-18.436,14.949-33.391,33.389-33.39c8.749,0,17.196,3.379,23.607,9.783l14.674,14.674c6.489,6.489,17.081,6.529,23.61,0
			l14.674-14.674c6.402-6.395,14.844-9.784,23.607-9.783c18.44-0.001,33.391,14.955,33.39,33.39
			C339.482,209.09,336.103,217.537,329.698,223.948z"/>
	</g>
</g>
</svg>