<?xml version="1.0" encoding="utf-8"?>

<!DOCTYPE svg PUBLIC "-//W3C//DTD SVG 1.1//EN" "http://www.w3.org/Graphics/SVG/1.1/DTD/svg11.dtd">
<!-- Uploaded to: SVG Repo, www.svgrepo.com, Generator: SVG Repo Mixer Tools -->
<svg height="800px" width="800px" version="1.1" id="_x32_" xmlns="http://www.w3.org/2000/svg" xmlns:xlink="http://www.w3.org/1999/xlink" 
	 viewBox="0 0 512 512"  xml:space="preserve">
<style type="text/css">
	.st0{fill:#000000;}
</style>
<g>
	<path class="st0" d="M349.017,106.724V66.397C349.017,34.207,316.413,0,256,0c-60.414,0-93.017,34.207-93.017,66.397v40.327
		c-38.181,20.337-109.759,65.259-109.759,116.009c0,20.233,11.043,46.122,27.888,83.31c7.12,15.733,17.862,39.449,18.681,46.742
		v102.793c0,33.371,44.344,42.982,63.284,47.086C190.043,508.509,224.784,512,256,512c31.215,0,65.957-3.491,92.922-9.336
		c18.94-4.104,63.285-13.716,63.285-47.086V352.785c0.819-7.293,11.56-31.009,18.681-46.742
		c16.845-37.189,27.888-63.078,27.888-83.31C458.776,171.982,387.198,127.061,349.017,106.724z M385.724,352.465
		c0,23.284,0,86.483,0,103.112s-69.845,29.94-129.724,29.94s-129.724-13.31-129.724-29.94s0-79.828,0-103.112
		c0-23.284-46.569-99.611-46.569-129.733c0-46.56,109.759-99.784,109.759-99.784s0-39.913,0-56.551
		c0-16.63,19.965-39.914,66.534-39.914c46.569,0,66.534,23.284,66.534,39.914c0,16.638,0,56.551,0,56.551
		s109.759,53.224,109.759,99.784C432.293,252.854,385.724,329.181,385.724,352.465z"/>
	<path class="st0" d="M256,254.956c-8.845,0-16.009,7.165-16.009,16.018c0,8.836,7.164,16,16.009,16c8.844,0,16.009-7.164,16.009-16
		C272.009,262.121,264.845,254.956,256,254.956z"/>
	<path class="st0" d="M196.758,224.543c-8.844,0-16.017,7.164-16.017,16.018c0,8.836,7.172,16,16.017,16
		c8.845,0,16.009-7.164,16.009-16C212.767,231.706,205.603,224.543,196.758,224.543z"/>
	<path class="st0" d="M163.137,171.707c-8.844,0-16.017,7.172-16.017,16.017c0,8.836,7.172,16,16.017,16c8.836,0,16-7.164,16-16
		C179.137,178.88,171.974,171.707,163.137,171.707z"/>
	<path class="st0" d="M315.241,224.543c-8.844,0-16.009,7.164-16.009,16.018c0,8.836,7.165,16,16.009,16
		c8.846,0,16.018-7.164,16.018-16C331.259,231.706,324.087,224.543,315.241,224.543z"/>
	<path class="st0" d="M348.871,171.707c-8.845,0-16.009,7.172-16.009,16.017c0,8.836,7.164,16,16.009,16
		c8.836,0,16.009-7.164,16.009-16C364.879,178.88,357.707,171.707,348.871,171.707z"/>
</g>
</svg>