<?xml version="1.0" encoding="utf-8"?>

<!DOCTYPE svg PUBLIC "-//W3C//DTD SVG 1.1//EN" "http://www.w3.org/Graphics/SVG/1.1/DTD/svg11.dtd">
<!-- Uploaded to: SVG Repo, www.svgrepo.com, Generator: SVG Repo Mixer Tools -->
<svg height="800px" width="800px" version="1.1" id="_x32_" xmlns="http://www.w3.org/2000/svg" xmlns:xlink="http://www.w3.org/1999/xlink" 
	 viewBox="0 0 512 512"  xml:space="preserve">
<style type="text/css">
	.st0{fill:#000000;}
</style>
<g>
	<path class="st0" d="M425.673,338.984c-10.538-17.688-26.065-32.819-45.67-42.946l-81.13-41.969V0H70.153v19.059v304.618
		c0.016,42.718,23.886,81.928,61.818,101.576l142.957,73.946c16.745,8.663,34.77,12.801,52.466,12.801
		c20.707-0.008,40.993-5.635,58.698-16.182c17.696-10.53,32.827-26.056,42.954-45.661c8.662-16.746,12.809-34.77,12.801-52.466
		C441.847,376.975,436.22,356.688,425.673,338.984z M108.271,38.117h152.486v49.244H108.271V38.117z M395.184,432.646
		c-6.813,13.146-16.796,23.382-28.604,30.43c-11.809,7.04-25.401,10.808-39.186,10.799c-11.801-0.008-23.702-2.717-34.954-8.537
		l-142.949-73.947c-25.248-13.044-41.229-39.302-41.22-67.714V115.958h152.486v161.316l101.736,52.626
		c13.154,6.804,23.39,16.796,30.438,28.605c7.031,11.792,10.799,25.4,10.799,39.185
		C403.721,409.491,401.004,421.384,395.184,432.646z"/>
</g>
</svg>