<?xml version="1.0" ?>
<!DOCTYPE svg  PUBLIC '-//W3C//DTD SVG 1.1//EN'  'http://www.w3.org/Graphics/SVG/1.1/DTD/svg11.dtd'>
<!-- Uploaded to: SVG Repo, www.svgrepo.com, Generator: SVG Repo Mixer Tools -->
<svg fill="#000000" width="800px" height="800px" viewBox="0 0 512 512" enable-background="new 0 0 512 512" id="Strappy_x5F_top" version="1.1" xml:space="preserve" xmlns="http://www.w3.org/2000/svg" xmlns:xlink="http://www.w3.org/1999/xlink">
<g>
<path d="M411.51,235.724c-37.238-16.039-55.72-60.063-58.006-65.834l3.807-80.507c0.091-1.903-1.379-3.519-3.282-3.609   c-1.916-0.105-3.52,1.38-3.609,3.284l-3.766,79.638L256,238.381l-19.469-14.965c-1.51-1.161-3.675-0.877-4.837,0.633   c-1.161,1.511-0.878,3.676,0.633,4.837l21.571,16.582c1.239,0.954,2.966,0.954,4.205,0l90.434-69.518   c5.459,12.608,23.729,49.129,57.989,65.098l-12.394,165.51l-16.961,1.842c-1.895,0.205-3.263,1.908-3.058,3.803   c0.192,1.768,1.688,3.078,3.426,3.078c0.125-0.001,0.25-0.008,0.377-0.021l19.814-2.151c1.653-0.18,2.943-1.514,3.068-3.173   l12.787-170.786C413.696,237.682,412.863,236.306,411.51,235.724z"/>
<path d="M212.646,213.758l1.379,1.06c0.627,0.482,1.367,0.715,2.101,0.715c1.034,0,2.058-0.463,2.737-1.347   c1.162-1.511,0.878-3.677-0.632-4.838l-1.379-1.06c-1.511-1.161-3.677-0.878-4.838,0.632   C210.853,210.432,211.136,212.597,212.646,213.758z"/>
<path d="M330.029,413.52l-33.334,3.62c-27.003,2.923-54.387,2.923-81.39,0l-97.438-10.581l-12.393-165.51   c34.259-15.969,52.529-52.49,57.989-65.098l31.206,23.988c1.51,1.162,3.676,0.879,4.837-0.633c1.161-1.51,0.878-3.676-0.633-4.837   l-33.528-25.773l-3.766-79.638c-0.089-1.904-1.718-3.386-3.609-3.284c-1.904,0.091-3.373,1.706-3.284,3.609l3.807,80.507   c-2.286,5.771-20.767,49.795-58.006,65.834c-1.352,0.582-2.186,1.958-2.076,3.426l12.788,170.786   c0.124,1.659,1.415,2.993,3.068,3.173l100.293,10.891c13.748,1.488,27.592,2.232,41.437,2.232s27.691-0.744,41.439-2.232   l33.335-3.62c1.895-0.205,3.264-1.908,3.058-3.803S331.919,413.31,330.029,413.52z"/>
<path d="M354.334,410.88l-1.313,0.143c-1.895,0.206-3.263,1.908-3.057,3.803c0.191,1.768,1.688,3.078,3.426,3.078   c0.124,0,0.25-0.007,0.377-0.021l1.313-0.143c1.894-0.207,3.263-1.908,3.057-3.803C357.932,412.043,356.233,410.676,354.334,410.88   z"/>
</g>
</svg>