<?xml version="1.0" encoding="utf-8"?>
<!-- Uploaded to: SVG Repo, www.svgrepo.com, Generator: SVG Repo Mixer Tools -->
<svg fill="#000000" height="800px" width="800px" version="1.1" id="Layer_1" xmlns="http://www.w3.org/2000/svg" xmlns:xlink="http://www.w3.org/1999/xlink" 
	 viewBox="0 0 128 128" xml:space="preserve">
<g>
	<path d="M118.8,94.2V83.8C118.8,53.7,94.1,29,64,29h0C33.9,29,9.2,53.7,9.2,83.8v10.4C9.8,94.1,118.2,94.1,118.8,94.2z"/>
	<path d="M64,26.6c4.6,0,9.1,0.6,13.4,1.6c1.6-2.5,2.5-5.4,2.5-8.6c0-8.8-7.1-15.9-15.9-15.9s-15.9,7.1-15.9,15.9
		c0,3.2,0.9,6.1,2.5,8.6C54.9,27.1,59.4,26.6,64,26.6z"/>
	<path d="M118.8,96.6c-0.6-0.1-1.2-0.2-1.9-0.2h-1.1h-1.4h-101h-1.4H11c-0.6,0-1.3,0.1-1.9,0.2c-5.3,0.9-9.4,5.6-9.4,11.1v4
		c0,5.6,4.1,10.2,9.4,11.1c0.6,0.1,1.2,0.2,1.9,0.2h1.5h1.2h100.6h1.2h1.5c0.6,0,1.3-0.1,1.9-0.2c5.3-0.9,9.4-5.6,9.4-11.1v-4
		C128.2,102.2,124.1,97.5,118.8,96.6z"/>
</g>
</svg>