<?xml version="1.0" encoding="UTF-8"?>
<svg version="1.1" xmlns="http://www.w3.org/2000/svg" width="1585" height="1506">
<path d="M0 0 C1.11487793 0.50031738 2.22975586 1.00063477 3.37841797 1.51611328 C76.6603673 34.57108564 141.60980239 80.66701762 198.5 137.375 C199.43207275 138.3023999 200.36414551 139.2297998 201.32446289 140.18530273 C206.42476462 145.29756513 211.31447722 150.5069784 216 156 C217.04514018 157.19162796 218.09199425 158.38175508 219.140625 159.5703125 C225.39821762 166.70935416 231.43859647 173.96248545 237.25 181.46875 C239.13953784 183.90826859 241.05718294 186.3214436 243 188.71875 C243.75651855 189.65400513 243.75651855 189.65400513 244.52832031 190.6081543 C245.54760721 191.86506935 246.57037761 193.11916779 247.59667969 194.37036133 C250.09249971 197.45227208 252.38905885 200.52881268 254.453125 203.91796875 C258.41634156 210.34046245 261.40071344 214.53455326 269.125 216.5 C271.08075473 216.8699013 273.03668783 217.2394498 274.99707031 217.58398438 C300.89815226 222.96373128 323.02165002 241.72039063 342 259 C342.66128906 259.5995752 343.32257813 260.19915039 344.00390625 260.81689453 C352.59644794 268.64108038 360.75029344 276.71892871 368.51269531 285.36425781 C370.06754247 287.07428341 371.65002806 288.75437671 373.2421875 290.4296875 C386.11301621 303.99449431 396.99682117 318.90784307 408 334 C408.57073242 334.77988281 409.14146484 335.55976563 409.72949219 336.36328125 C413.52331272 341.5495494 417.27844303 346.76165306 421 352 C421.42700195 352.59603027 421.85400391 353.19206055 422.29394531 353.80615234 C431.33562304 366.51032784 438.57497396 380.31750937 446 394 C446.4959668 394.90395508 446.99193359 395.80791016 447.50292969 396.73925781 C456.16674617 412.53506353 463.21259374 428.84953678 469.4375 445.75 C469.9327417 447.08865112 469.9327417 447.08865112 470.43798828 448.4543457 C473.43513134 456.78157283 475.38203563 464.61989058 475.3125 473.5 C475.30621582 474.60746582 475.30621582 474.60746582 475.29980469 475.73730469 C475.13829946 483.5342271 473.79589908 490.36969804 468 496 C463.10424513 499.30178817 458.72318388 499.80031514 453 499 C430.31763504 493.24305458 409.40394679 470.84157799 392.6953125 455.44921875 C390.54326461 453.49366219 388.37024887 451.57513242 386.17578125 449.66796875 C382.05555715 446.072691 378.04560129 442.37105819 374.0625 438.625 C373.36447266 437.97015625 372.66644531 437.3153125 371.94726562 436.640625 C367.51996363 432.47278349 363.19331977 428.22217924 358.921875 423.89453125 C356.47398965 421.48147354 353.90389747 419.24500621 351.2890625 417.015625 C349.46991852 415.41378491 347.71075647 413.7848024 345.9609375 412.109375 C337.91783495 404.43468613 330.17273963 397.42885644 319 395 C325.53779792 415.09512623 339.16924745 432.04713359 352.0625 448.5 C361.88466638 461.19694678 370.31126665 474.40377757 377 489 C377.46962158 490.00160156 377.46962158 490.00160156 377.94873047 491.0234375 C384.81096025 505.69659243 392.63433167 523.46730791 387.8125 539.8125 C385.97536131 544.69428638 383.27252591 547.67435988 378.75 550.3125 C370.81708203 552.29572949 364.10317635 550.92356226 357 547 C349.88276396 542.27633124 343.49276584 536.76250429 337.375 530.8125 C336.89764404 530.3575415 336.42028809 529.90258301 335.9284668 529.43383789 C326.27281799 519.71714855 318.90899647 507.69197699 312.07833862 495.90518188 C310.89440339 493.86316835 309.69964722 491.82781628 308.50219727 489.79370117 C306.83016219 486.95197207 305.16140016 484.10837288 303.49609375 481.26269531 C299.87272856 475.07277978 296.23756427 468.89014737 292.57156372 462.72537231 C291.47903494 460.8825587 290.3964618 459.03416312 289.31420898 457.18530273 C280.3146883 441.9618565 270.15724847 429.45984302 255 420 C255.54657148 426.54063866 257.77580046 432.08177597 260.25 438.125 C260.68820068 439.21031006 261.12640137 440.29562012 261.57788086 441.41381836 C265.29441893 450.51270574 269.32877567 459.45944952 273.40029907 468.402771 C278.46668123 479.55654894 282.9418391 490.85990015 287.06396484 502.39453125 C287.92520712 504.79181283 288.81078361 507.17813313 289.70703125 509.5625 C297.48679522 530.50080822 307.68347014 560.1614949 298.125 581.8671875 C295.47385392 586.89331861 292.62771513 589.92490725 287.45703125 592.265625 C278.98724888 594.79713388 270.68459571 593.37403165 262.83203125 589.6484375 C244.44815718 578.94775494 234.01423043 556.84727916 224 539 C223.41959961 537.96601074 222.83919922 536.93202148 222.24121094 535.86669922 C219.90644162 531.70100667 217.57591912 527.53297355 215.25048828 523.36206055 C192.03179637 475.81857811 192.03179637 475.81857811 156 439 C153.77616644 441.22383356 154.5647027 446.32215762 154.55566406 449.36010742 C155.13925998 474.04176338 166.83308891 499.63896959 175.015625 522.70703125 C200.15650814 594.25747216 200.15650814 594.25747216 190.2421875 617.67578125 C188.16973207 621.55348874 187.00279073 622.92712623 183 625 C176.7918167 625.96183121 170.61351683 625.83161994 165.1171875 622.5703125 C128.42232578 595.35382834 114.82958183 545.19181927 101.4375 503.8125 C94.29893215 481.76030929 86.99438181 460.13717938 77.125 439.125 C76.67205566 438.15973389 76.21911133 437.19446777 75.75244141 436.19995117 C75.32108887 435.31154541 74.88973633 434.42313965 74.4453125 433.5078125 C74.06906738 432.73066895 73.69282227 431.95352539 73.30517578 431.15283203 C71.82588678 428.71280764 70.08287996 426.93752434 68 425 C61.0280156 439.96200193 58.66707093 456.71557782 55.42578125 472.77734375 C55.16595459 474.05738281 54.90612793 475.33742188 54.63842773 476.65625 C54.14425829 479.10386635 53.65759371 481.55301494 53.17993164 484.00390625 C47.82221377 510.72212444 47.82221377 510.72212444 37.125 517.9375 C28.66032404 522.56186929 20.72703594 522.69451892 11.42578125 520.3515625 C2.01427113 517.13066893 -4.90039666 510.75264325 -9.5 502 C-13.31782196 494.00920984 -14.37020181 486.01900266 -14.3125 477.25 C-14.30758545 476.34459473 -14.3026709 475.43918945 -14.29760742 474.50634766 C-13.73118163 440.87517933 -1.13871105 411.94911904 13.42333984 382.23876953 C16.13200252 376.67464457 18.74764125 371.06667761 21.37768555 365.46508789 C23.43490046 361.13065096 25.58074486 356.87056359 27.875 352.65625 C28.34526611 351.79 28.81553223 350.92375 29.30004883 350.03125 C30.20053665 348.38841036 31.11375424 346.75246057 32.04174805 345.125 C34.38735535 340.908952 34.38735535 340.908952 34.99609375 336.20703125 C33.81321345 333.58613961 32.49303184 332.12971067 30.375 330.1875 C27.66007958 327.67110143 25.16703298 325.07570032 22.75390625 322.2734375 C18.87839268 317.7992547 14.75797676 313.61031892 10.5625 309.4375 C9.85029297 308.72142578 9.13808594 308.00535156 8.40429688 307.26757812 C4.32170592 303.19240332 0.14059132 299.29531784 -4.22924805 295.5300293 C-6.42737481 293.63072412 -8.55462891 291.65954418 -10.6875 289.6875 C-33.79712529 268.97932674 -61.6585959 253.40649232 -89 239 C-89.8755957 238.53303711 -90.75119141 238.06607422 -91.65332031 237.58496094 C-168.51955569 197.03348243 -263.46079958 189.9062893 -345.92721558 215.15249634 C-349.96162816 216.40392486 -353.98248272 217.69552006 -358 219 C-358.80244141 219.25571777 -359.60488281 219.51143555 -360.43164062 219.77490234 C-396.75964998 231.52958391 -433.29909119 254.92598484 -461.3828125 280.62890625 C-463.46765972 282.5177156 -465.57657351 284.36205992 -467.70629883 286.19921875 C-471.729332 289.71710376 -475.54475308 293.39952316 -479.31640625 297.18359375 C-479.97656235 297.84279312 -480.63671844 298.50199249 -481.31687927 299.1811676 C-482.70035506 300.56396835 -484.08259083 301.94801076 -485.46362305 303.33325195 C-487.55731669 305.43230343 -489.65629874 307.5259594 -491.75585938 309.61914062 C-493.10969571 310.97363786 -494.46322175 312.32844531 -495.81640625 313.68359375 C-496.74169884 314.60584999 -496.74169884 314.60584999 -497.6856842 315.54673767 C-501.42915501 319.31006404 -504.98645365 323.1908605 -508.453125 327.21081543 C-509.86209532 328.8404933 -511.29518954 330.44285066 -512.74609375 332.03515625 C-539.56505531 361.95889789 -559.53496303 399.36742325 -577.49853516 435.03173828 C-578.78415182 437.57328746 -580.09563039 440.09857429 -581.41796875 442.62109375 C-606.26411594 491.15245704 -621.63141986 554.01991949 -625 608 C-625.12918823 609.90978638 -625.12918823 609.90978638 -625.26098633 611.8581543 C-626.05138905 624.13480132 -626.19983472 636.38803932 -626.1875 648.6875 C-626.18722809 649.71203278 -626.18695618 650.73656555 -626.18667603 651.79214478 C-626.1069299 717.44872577 -612.48609494 785.04434991 -585 845 C-584.62939453 845.81662109 -584.25878906 846.63324219 -583.87695312 847.47460938 C-565.62229166 887.47692077 -542.51038161 928.21574713 -513.41503906 961.37451172 C-511.91223197 963.10082118 -510.43467601 964.84648061 -508.9609375 966.59765625 C-503.85820833 972.64751649 -498.6856109 978.47092434 -493.0078125 983.99609375 C-491.09192905 985.9082498 -489.32080011 987.88069778 -487.5625 989.9375 C-481.66158275 996.79458439 -475.19013855 1003.09092705 -468.31640625 1008.96484375 C-465.83143721 1011.14809648 -463.42131308 1013.39891682 -461.01074219 1015.66357422 C-435.30005109 1039.79747146 -405.04650538 1058.25723666 -373.875 1074.5 C-372.77365723 1075.07532471 -371.67231445 1075.65064941 -370.53759766 1076.2434082 C-343.04108011 1090.38619487 -312.97247985 1098.08645319 -283 1105 C-281.98147949 1105.23976563 -280.96295898 1105.47953125 -279.91357422 1105.7265625 C-253.99750698 1111.72288485 -226.48903403 1112.50847831 -200 1113 C-199.18821289 1113.01659668 -198.37642578 1113.03319336 -197.54003906 1113.05029297 C-192.35691249 1113.1426452 -187.18271071 1113.10127475 -182 1113 C-180.47656982 1112.97317139 -180.47656982 1112.97317139 -178.92236328 1112.94580078 C-106.47828754 1111.51509033 -31.58177631 1098.62020066 35 1069 C36.13598633 1068.49702393 36.13598633 1068.49702393 37.29492188 1067.98388672 C63.0654215 1056.44509723 87.7954761 1042.0657535 111 1026 C111.94875 1025.34773438 112.8975 1024.69546875 113.875 1024.0234375 C133.63603965 1010.064331 152.82636098 992.39523212 168.39453125 973.8671875 C169.55400423 972.51870067 170.76754015 971.21606579 172.01171875 969.9453125 C172.66785156 969.26210937 173.32398438 968.57890625 174 967.875 C174.598125 967.27429687 175.19625 966.67359375 175.8125 966.0546875 C177.54293259 963.06058374 176.73594234 961.35575159 176 958 C175.15388579 955.27132994 174.27228368 952.58216562 173.33203125 949.88671875 C173.06070877 949.09663925 172.78938629 948.30655975 172.50984192 947.49253845 C171.9224059 945.78387772 171.33280579 944.07595979 170.74127197 942.36871338 C169.79800283 939.64564904 168.86089403 936.92053198 167.92529297 934.19482422 C165.32529855 926.6250642 162.71274052 919.05965729 160.09619141 911.49560547 C139.57892136 852.16494083 139.57892136 852.16494083 137 831 C136.87109375 830.0409375 136.7421875 829.081875 136.609375 828.09375 C134.29385136 807.86338561 134.02436661 782.07697434 146.37109375 764.96484375 C153.2975617 756.6098956 162.21865445 752.05261658 173 751 C181.58474846 750.78174368 188.3976297 752.77025049 194.78515625 758.640625 C203.92750778 768.6140994 204.11393513 782.10914178 204.96484375 794.984375 C205.12677447 797.24220032 205.28888962 799.50001242 205.45117188 801.7578125 C205.69555466 805.25011342 205.93699533 808.74258014 206.17456055 812.23535156 C206.41618374 833.969802 206.41618374 833.969802 213 854 C231.79572898 830.64773066 244.42517669 802.83925951 257.01437378 775.82318115 C299.69069117 684.32340769 299.69069117 684.32340769 335.57421875 669.6640625 C340.86988657 668.21436278 346.86345527 667.61008018 351.9921875 669.8828125 C355.77850003 672.72725624 358.04555008 676.4372638 359 681 C362.90245723 711.74663273 341.15200491 750.0352476 327.60546875 776.68359375 C316.33638807 798.77493847 316.33638807 798.77493847 306.4375 821.5 C305.78612061 823.10584961 305.78612061 823.10584961 305.12158203 824.74414062 C302.19360799 832.38358953 300.87150829 839.87902423 300 848 C312.39130531 847.22180208 320.1493591 838.36576425 327.98291016 829.57763672 C334.08229625 822.55690417 339.85013263 815.26433554 345.52832031 807.90136719 C347.1110899 805.85647509 348.70679524 803.8221568 350.3046875 801.7890625 C356.93412643 793.3384618 363.40064893 784.78967226 369.74047852 776.11987305 C374.94776854 769.02008338 380.33037048 762.06758625 385.76953125 755.14453125 C387.74428928 752.62727626 389.68501663 750.09375302 391.57421875 747.51171875 C401.79456841 733.67623714 414.59404926 718.09551782 432 714 C439.70806016 713.2234722 447.13248532 712.63813791 453.4921875 717.59375 C459.80931752 723.48537385 462.05947436 730.4982639 462.4375 739.0625 C461.45836736 767.10485886 445.72582061 794.38118467 432.09570312 818.07763672 C430.99889812 820.00193321 429.92578925 821.9376229 428.859375 823.87890625 C424.80171918 831.2437855 420.52967456 838.41457525 416 845.5 C412.10982813 851.59044762 408.32221486 857.71683244 404.75 864 C404.36714844 864.66451172 403.98429687 865.32902344 403.58984375 866.01367188 C401.97962641 868.88733691 401 870.65095636 401 874 C402.55754253 875.96057155 402.55754253 875.96057155 405 877 C409.96887034 875.87550318 413.40976134 873.46993001 417.1875 870.1875 C417.75210937 869.70104004 418.31671875 869.21458008 418.8984375 868.71337891 C428.23240205 860.45701532 435.5287153 850.40990903 443.01904297 840.51586914 C447.31491449 834.85001436 451.75198116 829.31543894 456.26074219 823.81811523 C459.31543658 820.08937379 462.31552671 816.32794693 465.26171875 812.51293945 C478.57844211 795.29229845 497.62327298 772.66021337 520 768 C525.94099421 767.40809283 531.09918594 767.09961439 536.5625 769.6875 C540.61679546 773.53388287 543.67404386 776.68165963 544.23828125 782.42578125 C544.90069254 808.19009416 526.59695737 834.4334906 510 853 C506.03214242 857.17262433 501.92900455 861.20203146 497.796875 865.2109375 C494.55465626 868.38173991 491.57715886 871.7197409 488.62109375 875.15625 C486.41020098 877.67080756 484.03303915 879.98762136 481.625 882.3125 C472.34020896 891.47751819 461.22966539 903.31100382 457 916 C472.7085792 913.67941444 484.86858765 903.31989521 497.13671875 893.9375 C502.39586898 889.9175673 507.79095842 886.09565973 513.19726562 882.27734375 C515.03773803 880.97326038 516.87085299 879.65932512 518.703125 878.34375 C527.60493905 871.97594791 536.64982676 865.82943981 545.75 859.75 C546.31141693 859.37399658 546.87283386 858.99799316 547.45126343 858.6105957 C569.07003668 844.14562505 569.07003668 844.14562505 580.1875 838.75 C580.86184082 838.41991943 581.53618164 838.08983887 582.23095703 837.74975586 C601.92147841 828.20633789 601.92147841 828.20633789 611.8125 831.125 C617.53863383 834.49331402 620.31278634 837.58561503 622 844 C626.24528681 882.01994428 592.72617616 920.53990957 571 949 C570.48373047 949.67901367 569.96746094 950.35802734 569.43554688 951.05761719 C563.85180665 958.38110959 558.03584108 965.36499819 551.734375 972.08203125 C549.03656764 974.96097711 546.39340368 977.88364001 543.75 980.8125 C538.77198829 986.28758457 533.54208654 991.49385238 528.28198242 996.6965332 C525.08383817 999.87160698 521.97742904 1003.05811582 519.0625 1006.5 C516.33431367 1009.71981382 513.36242132 1012.44229896 510.14453125 1015.16796875 C507.83461771 1017.14128287 505.60911838 1019.19139337 503.375 1021.25 C498.33578688 1025.79683199 493.05425844 1029.96481586 487.69140625 1034.1171875 C485.23141013 1036.02509885 482.80538957 1037.9661799 480.40234375 1039.9453125 C459.96682572 1056.73978277 434.60365302 1075.15484491 408.625 1081.625 C402.35998306 1083.64409697 399.92467999 1087.50471887 396.6015625 1092.90625 C393.45559823 1098.00726112 389.77907032 1102.69420709 386.125 1107.4375 C385.42898682 1108.34556396 384.73297363 1109.25362793 384.01586914 1110.18920898 C382.01501278 1112.79625749 380.00874117 1115.39902384 378 1118 C377.19780029 1119.04051514 377.19780029 1119.04051514 376.37939453 1120.10205078 C370.68165692 1127.47748714 364.83115626 1134.69981255 358.7578125 1141.76953125 C356.9897611 1143.82774021 355.26585024 1145.90420042 353.5546875 1148.01171875 C346.47615584 1156.66325745 338.64695573 1164.54136708 330.75 1172.4375 C330.18256073 1173.00584564 329.61512146 1173.57419128 329.03048706 1174.15975952 C322.86748052 1180.32165375 316.65975126 1186.37034744 310 1192 C308.88172019 1192.97270397 307.76450508 1193.94663354 306.6484375 1194.921875 C298.62349007 1201.87351452 290.4167543 1208.52997798 282 1215 C281.19578613 1215.61955566 280.39157227 1216.23911133 279.56298828 1216.87744141 C257.56320889 1233.80444619 235.12748378 1250.19590477 211 1264 C210.00299072 1264.57065186 210.00299072 1264.57065186 208.98583984 1265.15283203 C167.6296363 1288.69287159 123.96881788 1308.41024779 79 1324 C78.33734131 1324.2301178 77.67468262 1324.4602356 76.99194336 1324.69732666 C15.43086107 1346.01533024 -48.99687227 1357.62031389 -113.76623535 1363.78710938 C-115.27384733 1363.93079347 -116.7812509 1364.07667902 -118.28845215 1364.22460938 C-165.65994846 1368.85950412 -214.5002003 1369.22943132 -261.85351562 1364.22460938 C-263.99661308 1364.00035441 -266.14057608 1363.78768672 -268.28515625 1363.578125 C-360.77362687 1354.46043103 -448.78181611 1326.51320361 -599.40869141 1230.29150391 C-601.67730346 1228.45030142 -603.96396471 1226.63199747 -606.25 1224.8125 C-607.83435214 1223.54293704 -609.41768853 1222.27210543 -611 1221 C-611.83402344 1220.3296875 -612.66804688 1219.659375 -613.52734375 1218.96875 C-625.47252942 1209.28630875 -637.01254468 1199.15270291 -648.23876953 1188.64794922 C-650.19686397 1186.8157982 -652.15903314 1184.98805887 -654.12109375 1183.16015625 C-655.53932317 1181.83621668 -656.95729532 1180.51200145 -658.375 1179.1875 C-659.02911865 1178.57729004 -659.6832373 1177.96708008 -660.35717773 1177.33837891 C-666.47868877 1171.60292316 -672.38654066 1165.78219599 -677.859375 1159.421875 C-680.08444635 1156.90445851 -682.369371 1154.45376672 -684.66918945 1152.00488281 C-689.83821137 1146.49776972 -694.83717785 1140.93312268 -699.5625 1135.03515625 C-702.0459644 1131.94276548 -704.5715705 1128.88896478 -707.10424805 1125.83691406 C-713.13218459 1118.56389435 -719.0390645 1111.22747508 -724.72851562 1103.68505859 C-726.10104859 1101.86608345 -727.48032138 1100.05231673 -728.859375 1098.23828125 C-751.49222582 1068.37045999 -772.05742908 1037.01792256 -789.89111328 1004.04589844 C-790.9681505 1002.0587624 -792.05946023 1000.08001557 -793.15234375 998.1015625 C-835.19250891 921.23002725 -861.71561161 835.49211459 -875.25 733.125 C-875.37496857 732.1438623 -875.49993713 731.16272461 -875.62869263 730.15185547 C-886.11430159 647.27663817 -879.79353092 563.58922097 -724 191 C-723.11513916 189.8538623 -723.11513916 189.8538623 -722.21240234 188.68457031 C-715.26477214 179.68739849 -708.28840646 170.72537469 -701 162 C-700.58186035 161.49694336 -700.1637207 160.99388672 -699.73291016 160.47558594 C-693.49126019 152.97467569 -687.06614272 145.68207068 -680.42236328 138.53564453 C-678.94985313 136.94585928 -677.48761987 135.34711937 -676.02734375 133.74609375 C-667.76681607 124.70476002 -659.41025995 115.76112306 -650.08203125 107.80078125 C-647.56846422 105.62675798 -645.13223771 103.37609512 -642.6875 101.125 C-637.28541806 96.20392536 -631.6891084 91.58309368 -626 87 C-624.73493201 85.96705767 -623.4706572 84.93314342 -622.20703125 83.8984375 C-614.53452189 77.62228028 -606.80277408 71.45374373 -598.90722656 65.45947266 C-596.71602011 63.78268922 -594.54188835 62.0848512 -592.3671875 60.38671875 C-574.7578858 46.70620579 -556.37397684 34.06273178 -537 23 C-536.34499512 22.62246582 -535.68999023 22.24493164 -535.01513672 21.85595703 C-487.77273079 -5.28376901 -435.22010017 -27.0250385 -382 -39 C-381.09024414 -39.20689453 -380.18048828 -39.41378906 -379.24316406 -39.62695312 C-363.04292373 -43.22443598 -346.61460151 -45.4211281 -330.1875 -47.6875 C-329.10125336 -47.83806854 -328.01500671 -47.98863708 -326.89584351 -48.14376831 C-245.1742707 -59.4063784 -161.49404283 -53.00256146 0 0 Z " fill="#008CFF" transform="translate(930,88)"/>
</svg>
